# xmcd
#
# Track frame offsets:
#	150
#	13200
#	26919
#	38520
#	48393
#	58322
#	69589
#	82360
#	92512
#	104113
#	112621
#	122494
#	133510
#	144693
#
# Disc length: 2117 seconds
#
# Revision: 0
# Processed by: cddbd v1.5.1PL2 Copyright (c) Steve Scherf et al.
# Submitted via: EasyCDDAExtractor 8.2.3.1
#
DISCID=c708430e
DTITLE=Willie Nelson - My Back Pages
DYEAR=2004
DGENRE=Country
TTITLE0=A Moment Isn't Very Long
TTITLE1=Everything But You
TTITLE2=Pages
TTITLE3=Ashamed
TTITLE4=Let's Pretend
TTITLE5=I Hope So
TTITLE6=She's Not For You
TTITLE7=Pride Wins Again
TTITLE8=Touch Me
TTITLE9=You Wouldn't Cross the Street to Say Goodbye
TTITLE10=Half a Man
TTITLE11=December Day
TTITLE12=Go Away
TTITLE13=Will You Remember Mine
EXTD=
EXTT0=
EXTT1=
EXTT2=
EXTT3=
EXTT4=
EXTT5=
EXTT6=
EXTT7=
EXTT8=
EXTT9=
EXTT10=
EXTT11=
EXTT12=
EXTT13=
PLAYORDER=
